<?xml version="1.0" standalone="no"?>
<!DOCTYPE svg PUBLIC "-//W3C//DTD SVG 20010904//EN"
 "http://www.w3.org/TR/2001/REC-SVG-20010904/DTD/svg10.dtd">
<svg version="1.0" xmlns="http://www.w3.org/2000/svg"
 width="700.000000pt" height="700.000000pt" viewBox="0 0 700.000000 700.000000"
 preserveAspectRatio="xMidYMid meet">
<metadata>
Created by potrace 1.11, written by Peter Selinger 2001-2013
</metadata>
<g transform="translate(0.000000,700.000000) scale(0.100000,-0.100000)"
fill="#000000" stroke="none">
<path d="M0 3500 l0 -3500 3500 0 3500 0 0 3500 0 3500 -3500 0 -3500 0 0
-3500z m6000 -994 c355 -56 527 -208 560 -494 6 -50 10 -399 10 -829 l0 -743
-274 0 -275 0 -14 53 c-8 28 -18 74 -22 100 l-6 48 -57 -56 c-135 -134 -393
-216 -616 -195 -286 27 -483 173 -558 413 -19 59 -23 94 -22 197 0 110 3 135
28 205 36 105 73 161 157 239 113 104 278 180 514 236 115 27 376 72 498 86
l57 7 0 111 c0 86 -5 120 -19 151 -38 82 -102 115 -237 123 -192 10 -298 -64
-329 -230 l-7 -38 -289 0 -288 0 6 53 c16 159 68 274 168 374 109 109 257 173
471 202 95 13 429 5 544 -13z"/>
<path d="M5830 1389 c-393 -115 -459 -144 -504 -223 -34 -58 -41 -114 -22
-179 36 -124 173 -187 342 -158 166 29 278 139 319 313 15 65 21 289 8 287 -5
-1 -69 -19 -143 -40z"/>
</g>
</svg>
